<svg xmlns="http://www.w3.org/2000/svg" width="323.168" height="62.109" viewBox="0 0 323.168 62.109">
  <g id="Group_268" data-name="Group 268" transform="translate(-798.416 -25)">
    <g id="Group_266" data-name="Group 266" transform="translate(130 -90.849)">
      <path id="Path_259" data-name="Path 259" d="M206.485,169.458c-2.439-9.119-14.817-5.229-21.485-7.628a2.247,2.247,0,0,1-1.513-1.94c.039-1.537,1.53-2.843,3.06-3.844,5.558-3.526,12.975-1.885,17.386,3.056a.927.927,0,0,0,1.576-.9c-3.944-11-21.123-12.3-26.85-1.889-2.96,5.481,1.938,11.486,7.693,11.585,3.879.438,7.556.634,11.24,1.025,1.153.178,2.469.235,3.083.943,1.4,2.1-.542,4.087-2.514,5.4a12.309,12.309,0,0,1-8.86,1.781,14.369,14.369,0,0,1-8.627-4.761.854.854,0,0,0-1.456.834c3.043,8.3,14.361,11.43,21.76,6.718,3.292-1.883,6.82-6,5.506-10.375" transform="translate(642.262 -23.976)" fill="#fff"/>
      <path id="Path_260" data-name="Path 260" d="M155.608,180.971c-2.27-1.239-5.8-3.857-7.22-7.291a15.284,15.284,0,0,1-.055-5.626l-.027.039a16.858,16.858,0,1,0-4.147,8.594c3.718,3.72,7.58,4.363,10.828,5.447a.659.659,0,0,0,.621-1.162m-23.878-4.354a11.207,11.207,0,1,1,11.207-11.206,11.22,11.22,0,0,1-11.207,11.206" transform="translate(666.681 -23.751)" fill="#fff"/>
      <path id="Path_261" data-name="Path 261" d="M73.679,148.708a16.822,16.822,0,0,0-18.724,16.8l0,0c0,18.429,5.684,24.5,10.656,28.348a.659.659,0,0,0,.97-.893c-2.875-3.377-5.325-8.812-3.613-13.254,23.9,12.908,37.6-26.233,10.714-31m-.826,27.857c-15.461,1.081-16.434-22.021-1.093-22.361,13.952-.02,14.984,20.981,1.093,22.361" transform="translate(689.98 -23.751)" fill="#fff"/>
      <path id="Path_262" data-name="Path 262" d="M324.859,180.971c-2.27-1.24-5.8-3.857-7.22-7.291a15.3,15.3,0,0,1-.056-5.626l-.026.039a16.857,16.857,0,1,0-4.147,8.594c3.718,3.72,7.58,4.363,10.828,5.447a.659.659,0,0,0,.621-1.162m-23.877-4.354a11.207,11.207,0,1,1,11.206-11.206,11.219,11.219,0,0,1-11.206,11.206" transform="translate(600.921 -23.751)" fill="#fff"/>
      <path id="Path_263" data-name="Path 263" d="M259.942,169.458c-2.439-9.119-14.817-5.229-21.485-7.628a2.247,2.247,0,0,1-1.513-1.94c.039-1.537,1.531-2.843,3.06-3.844,5.558-3.526,12.975-1.885,17.386,3.056a.927.927,0,0,0,1.576-.9c-3.944-11-21.123-12.3-26.85-1.889-2.96,5.481,1.938,11.486,7.693,11.585,3.879.438,7.556.634,11.24,1.025,1.153.178,2.469.235,3.083.943,1.4,2.1-.542,4.087-2.514,5.4a12.309,12.309,0,0,1-8.86,1.781,14.369,14.369,0,0,1-8.627-4.761.854.854,0,0,0-1.456.834c3.043,8.3,14.361,11.43,21.76,6.718,3.292-1.883,6.82-6,5.506-10.375" transform="translate(621.492 -23.976)" fill="#fff"/>
      <path id="Path_264" data-name="Path 264" d="M372.076,179.71c1.713,4.44-.739,9.877-3.613,13.254a.659.659,0,0,0,.97.893c4.971-3.846,10.655-9.919,10.655-28.348l0,0a16.823,16.823,0,0,0-18.724-16.8c-26.884,4.768-13.187,43.91,10.714,31m-8.8-25.506c15.342.34,14.368,23.442-1.093,22.361-13.892-1.381-12.86-22.381,1.093-22.361" transform="translate(576.657 -23.751)" fill="#fff"/>
      <path id="Path_265" data-name="Path 265" d="M437.283,172.882c-6.58,6.047-21.182,6.017-23.637-4.993,4.1-.171,19.311,2.964,24.244-4.573,5.523-11.615-18.365-22.135-27.459-6.016-11.136,18.51,17.851,34.618,28.218,16.557a.855.855,0,0,0-1.366-.975m-5.338-10.672c-3.94,2.889-14.634,1.9-18.018,1.479,1.033-8.465,12.789-12.09,18.339-6.45a3.315,3.315,0,0,1-.32,4.972" transform="translate(552.838 -23.927)" fill="#fff"/>
    </g>
    <g id="Group_267" data-name="Group 267" transform="translate(-120.276 -75.317)">
      <path id="Path_266" data-name="Path 266" d="M233.073,2.643a28.412,28.412,0,1,1-28.411,28.412A28.412,28.412,0,0,1,233.073,2.643m0-2.643a31.062,31.062,0,0,0-12.089,59.668A31.062,31.062,0,0,0,245.162,2.442,30.863,30.863,0,0,0,233.073,0" transform="translate(716.675 100.317)" fill="#fff"/>
      <path id="Path_267" data-name="Path 267" d="M237.336,10.346a24.971,24.971,0,1,0,24.97,24.97,24.971,24.971,0,0,0-24.97-24.97M230.153,32.31l-3.834,3.834h3.834v4.149a5.378,5.378,0,1,1-10.755,0V30.337a5.378,5.378,0,1,1,10.755,0Zm25.12,3.834v4.149a5.378,5.378,0,0,1-10.755,0V30.337a5.378,5.378,0,0,1,10.755,0V32.31l-3.834,3.834Z" transform="translate(712.412 96.055)" fill="#fff"/>
    </g>
  </g>
</svg>
